<mxfile host="app.diagrams.net" modified="2021-04-27T03:38:17.986Z" agent="5.0 (Windows NT 6.1; WOW64) AppleWebKit/537.36 (KHTML, like Gecko) Chrome/88.0.4324.150 Safari/537.36" etag="p_iwJk409NlclDVsUF3A" version="14.2.7" type="github">
  <diagram id="6a731a19-8d31-9384-78a2-239565b7b9f0" name="Page-1">
    <mxGraphModel dx="867" dy="516" grid="1" gridSize="10" guides="0" tooltips="1" connect="1" arrows="1" fold="1" page="1" pageScale="1" pageWidth="1169" pageHeight="827" background="#ffffff" math="0" shadow="0">
      <root>
        <mxCell id="0" />
        <mxCell id="1" parent="0" />
        <mxCell id="aNxNYfZ75736Q1pXCk_l-78" value="" style="rounded=1;whiteSpace=wrap;html=1;fillColor=none;dashed=1;dashPattern=1 4;" vertex="1" parent="1">
          <mxGeometry x="240" y="780" width="310" height="40" as="geometry" />
        </mxCell>
        <mxCell id="aNxNYfZ75736Q1pXCk_l-85" value="" style="rounded=1;whiteSpace=wrap;html=1;dashed=1;fillColor=none;gradientColor=none;" vertex="1" parent="1">
          <mxGeometry x="30" y="560" width="420" height="160" as="geometry" />
        </mxCell>
        <mxCell id="2" value="现场" style="shape=mxgraph.flowchart.terminator;strokeWidth=2;gradientColor=none;gradientDirection=north;fontStyle=0;html=1;" parent="1" vertex="1">
          <mxGeometry x="30" y="560" width="120" height="30" as="geometry" />
        </mxCell>
        <mxCell id="3" value="前端H5" style="shape=mxgraph.flowchart.data;strokeWidth=2;gradientColor=none;gradientDirection=north;fontStyle=0;html=1;" parent="1" vertex="1">
          <mxGeometry x="60" y="240" width="159" height="80" as="geometry" />
        </mxCell>
        <mxCell id="4" value="上位机" style="shape=mxgraph.flowchart.data;strokeWidth=2;gradientColor=none;gradientDirection=north;fontStyle=0;html=1;" parent="1" vertex="1">
          <mxGeometry x="290" y="630" width="159" height="80" as="geometry" />
        </mxCell>
        <mxCell id="aNxNYfZ75736Q1pXCk_l-55" style="rounded=0;orthogonalLoop=1;jettySize=auto;html=1;entryX=0.931;entryY=0.004;entryDx=0;entryDy=0;entryPerimeter=0;" edge="1" parent="1" source="aNxNYfZ75736Q1pXCk_l-57" target="aNxNYfZ75736Q1pXCk_l-85">
          <mxGeometry relative="1" as="geometry" />
        </mxCell>
        <mxCell id="aNxNYfZ75736Q1pXCk_l-58" style="rounded=0;orthogonalLoop=1;jettySize=auto;html=1;" edge="1" parent="1" source="aNxNYfZ75736Q1pXCk_l-59" target="aNxNYfZ75736Q1pXCk_l-57">
          <mxGeometry relative="1" as="geometry">
            <mxPoint x="330" y="280" as="sourcePoint" />
          </mxGeometry>
        </mxCell>
        <mxCell id="aNxNYfZ75736Q1pXCk_l-60" value="" style="rounded=0;orthogonalLoop=1;jettySize=auto;html=1;" edge="1" parent="1" source="5" target="aNxNYfZ75736Q1pXCk_l-59">
          <mxGeometry relative="1" as="geometry" />
        </mxCell>
        <mxCell id="5" value="网关" style="shape=mxgraph.flowchart.data;strokeWidth=2;gradientColor=none;gradientDirection=north;fontStyle=0;html=1;" parent="1" vertex="1">
          <mxGeometry x="310" y="160" width="159" height="80" as="geometry" />
        </mxCell>
        <mxCell id="7" style="fontStyle=1;strokeColor=#003366;strokeWidth=1;html=1;" parent="1" source="2" target="3" edge="1">
          <mxGeometry relative="1" as="geometry" />
        </mxCell>
        <mxCell id="8" style="fontStyle=1;strokeColor=#003366;strokeWidth=1;html=1;" parent="1" source="3" target="5" edge="1">
          <mxGeometry relative="1" as="geometry" />
        </mxCell>
        <mxCell id="13" value="下位机" style="shape=mxgraph.flowchart.data;strokeWidth=2;gradientColor=none;gradientDirection=north;fontStyle=0;html=1;" parent="1" vertex="1">
          <mxGeometry x="80" y="630" width="159" height="80" as="geometry" />
        </mxCell>
        <mxCell id="17" value="" style="elbow=horizontal;fontStyle=1;strokeColor=#003366;strokeWidth=1;html=1;" parent="1" source="4" target="13" edge="1">
          <mxGeometry x="50" y="-60" width="100" height="100" as="geometry">
            <mxPoint x="50" y="40" as="sourcePoint" />
            <mxPoint x="150" y="-60" as="targetPoint" />
          </mxGeometry>
        </mxCell>
        <mxCell id="aNxNYfZ75736Q1pXCk_l-56" value="" style="elbow=horizontal;fontStyle=1;strokeColor=#003366;strokeWidth=1;html=1;" edge="1" parent="1" source="13" target="2">
          <mxGeometry x="10" y="-60" width="100" height="100" as="geometry">
            <mxPoint x="331.3333333333335" y="530" as="sourcePoint" />
            <mxPoint x="330" y="660" as="targetPoint" />
          </mxGeometry>
        </mxCell>
        <mxCell id="aNxNYfZ75736Q1pXCk_l-57" value="集成服务" style="shape=mxgraph.flowchart.data;strokeWidth=2;gradientColor=none;gradientDirection=north;fontStyle=0;html=1;" vertex="1" parent="1">
          <mxGeometry x="480" y="440" width="159" height="80" as="geometry" />
        </mxCell>
        <mxCell id="aNxNYfZ75736Q1pXCk_l-59" value="..." style="ellipse;shape=cloud;whiteSpace=wrap;html=1;fontStyle=0;strokeWidth=2;gradientDirection=north;" vertex="1" parent="1">
          <mxGeometry x="490" y="300" width="120" height="30" as="geometry" />
        </mxCell>
        <mxCell id="aNxNYfZ75736Q1pXCk_l-62" value="运维" style="ellipse;whiteSpace=wrap;html=1;aspect=fixed;" vertex="1" parent="1">
          <mxGeometry x="330" y="430" width="80" height="80" as="geometry" />
        </mxCell>
        <mxCell id="aNxNYfZ75736Q1pXCk_l-63" value="" style="endArrow=classic;html=1;" edge="1" parent="1">
          <mxGeometry width="50" height="50" relative="1" as="geometry">
            <mxPoint x="270" y="790" as="sourcePoint" />
            <mxPoint x="350" y="790" as="targetPoint" />
          </mxGeometry>
        </mxCell>
        <mxCell id="aNxNYfZ75736Q1pXCk_l-64" value="数据流" style="text;html=1;strokeColor=none;fillColor=none;align=center;verticalAlign=middle;whiteSpace=wrap;rounded=0;" vertex="1" parent="1">
          <mxGeometry x="290" y="800" width="40" height="20" as="geometry" />
        </mxCell>
        <mxCell id="aNxNYfZ75736Q1pXCk_l-68" value="" style="endArrow=classic;html=1;strokeColor=#FF0000;" edge="1" parent="1">
          <mxGeometry width="50" height="50" relative="1" as="geometry">
            <mxPoint x="440" y="790" as="sourcePoint" />
            <mxPoint x="520" y="790" as="targetPoint" />
          </mxGeometry>
        </mxCell>
        <mxCell id="aNxNYfZ75736Q1pXCk_l-69" value="问题处理流程" style="text;html=1;strokeColor=none;fillColor=none;align=center;verticalAlign=middle;whiteSpace=wrap;rounded=0;" vertex="1" parent="1">
          <mxGeometry x="440" y="800" width="80" height="20" as="geometry" />
        </mxCell>
        <mxCell id="aNxNYfZ75736Q1pXCk_l-70" value="" style="endArrow=classic;html=1;strokeColor=#FF0000;entryX=0.585;entryY=1.013;entryDx=0;entryDy=0;entryPerimeter=0;" edge="1" parent="1" source="2" target="3">
          <mxGeometry width="50" height="50" relative="1" as="geometry">
            <mxPoint x="260" y="800" as="sourcePoint" />
            <mxPoint x="340" y="800" as="targetPoint" />
          </mxGeometry>
        </mxCell>
        <mxCell id="aNxNYfZ75736Q1pXCk_l-71" value="" style="endArrow=classic;html=1;strokeColor=#FF0000;entryX=0.444;entryY=0.008;entryDx=0;entryDy=0;entryPerimeter=0;" edge="1" parent="1" source="2" target="13">
          <mxGeometry width="50" height="50" relative="1" as="geometry">
            <mxPoint x="270" y="810" as="sourcePoint" />
            <mxPoint x="350" y="810" as="targetPoint" />
          </mxGeometry>
        </mxCell>
        <mxCell id="aNxNYfZ75736Q1pXCk_l-72" value="" style="endArrow=classic;html=1;strokeColor=#FF0000;entryX=0.261;entryY=1.019;entryDx=0;entryDy=0;entryPerimeter=0;" edge="1" parent="1" source="3" target="5">
          <mxGeometry width="50" height="50" relative="1" as="geometry">
            <mxPoint x="97.11369836321126" y="470" as="sourcePoint" />
            <mxPoint x="163.015" y="331.03999999999996" as="targetPoint" />
          </mxGeometry>
        </mxCell>
        <mxCell id="aNxNYfZ75736Q1pXCk_l-73" value="" style="endArrow=classic;html=1;strokeColor=#FF0000;" edge="1" parent="1" source="3" target="aNxNYfZ75736Q1pXCk_l-59">
          <mxGeometry width="50" height="50" relative="1" as="geometry">
            <mxPoint x="229" y="275.5699319336412" as="sourcePoint" />
            <mxPoint x="361.499" y="251.51999999999998" as="targetPoint" />
          </mxGeometry>
        </mxCell>
        <mxCell id="aNxNYfZ75736Q1pXCk_l-74" value="" style="endArrow=classic;html=1;strokeColor=#FF0000;" edge="1" parent="1" source="3" target="4">
          <mxGeometry width="50" height="50" relative="1" as="geometry">
            <mxPoint x="239" y="285.5699319336412" as="sourcePoint" />
            <mxPoint x="371.499" y="261.52" as="targetPoint" />
          </mxGeometry>
        </mxCell>
        <mxCell id="aNxNYfZ75736Q1pXCk_l-75" value="" style="endArrow=classic;html=1;strokeColor=#FF0000;" edge="1" parent="1" source="3" target="aNxNYfZ75736Q1pXCk_l-57">
          <mxGeometry width="50" height="50" relative="1" as="geometry">
            <mxPoint x="249" y="295.5699319336412" as="sourcePoint" />
            <mxPoint x="381.499" y="271.52" as="targetPoint" />
          </mxGeometry>
        </mxCell>
        <mxCell id="aNxNYfZ75736Q1pXCk_l-76" value="" style="endArrow=classic;html=1;strokeColor=#FF0000;" edge="1" parent="1" source="3" target="aNxNYfZ75736Q1pXCk_l-62">
          <mxGeometry width="50" height="50" relative="1" as="geometry">
            <mxPoint x="259" y="305.5699319336412" as="sourcePoint" />
            <mxPoint x="391.499" y="281.52" as="targetPoint" />
          </mxGeometry>
        </mxCell>
        <mxCell id="aNxNYfZ75736Q1pXCk_l-77" value="" style="endArrow=classic;html=1;strokeColor=#FF0000;entryX=0.5;entryY=1;entryDx=0;entryDy=0;entryPerimeter=0;" edge="1" parent="1" source="2" target="3">
          <mxGeometry width="50" height="50" relative="1" as="geometry">
            <mxPoint x="269" y="315.5699319336412" as="sourcePoint" />
            <mxPoint x="401.499" y="291.52" as="targetPoint" />
          </mxGeometry>
        </mxCell>
        <mxCell id="aNxNYfZ75736Q1pXCk_l-79" value="" style="endArrow=none;dashed=1;html=1;dashPattern=1 3;strokeWidth=2;" edge="1" parent="1" source="aNxNYfZ75736Q1pXCk_l-62" target="aNxNYfZ75736Q1pXCk_l-57">
          <mxGeometry width="50" height="50" relative="1" as="geometry">
            <mxPoint x="390" y="490" as="sourcePoint" />
            <mxPoint x="440" y="440" as="targetPoint" />
          </mxGeometry>
        </mxCell>
        <mxCell id="aNxNYfZ75736Q1pXCk_l-81" value="1.接收查看现场问题&lt;br&gt;2.确定H5链接版本正确；&lt;br&gt;&amp;nbsp; &amp;nbsp;确定请求网关正确；&lt;br&gt;&amp;nbsp; &amp;nbsp;确定参数正确；&lt;br&gt;&amp;nbsp; &amp;nbsp;确定界面提示与返回一致；&lt;br&gt;&lt;br&gt;3.代网关查询阿里云日志；&lt;br&gt;4.代其他环节查询日志；&lt;br&gt;&lt;br&gt;5.找集成服务确认版本；&lt;br&gt;6.找运维确认集成服务版本；&lt;br&gt;&lt;br&gt;7.与上位机核实是否有问题；&lt;br&gt;8.与下位机核实是否有问题；" style="shape=callout;whiteSpace=wrap;html=1;perimeter=calloutPerimeter;dashed=1;fillColor=none;gradientColor=none;position2=0.46;align=left;" vertex="1" parent="1">
          <mxGeometry x="60" y="10" width="170" height="230" as="geometry" />
        </mxCell>
        <mxCell id="aNxNYfZ75736Q1pXCk_l-82" value="前端查不到日志的，我再查询确认一遍" style="shape=callout;whiteSpace=wrap;html=1;perimeter=calloutPerimeter;dashed=1;fillColor=none;gradientColor=none;" vertex="1" parent="1">
          <mxGeometry x="340" y="80" width="120" height="80" as="geometry" />
        </mxCell>
        <mxCell id="aNxNYfZ75736Q1pXCk_l-83" value="前端查不到日志的，我再查询确认一遍" style="shape=callout;whiteSpace=wrap;html=1;perimeter=calloutPerimeter;dashed=1;fillColor=none;gradientColor=none;size=30;position=0.25;position2=0.17;" vertex="1" parent="1">
          <mxGeometry x="550" y="230" width="120" height="80" as="geometry" />
        </mxCell>
        <mxCell id="aNxNYfZ75736Q1pXCk_l-84" value="1.&lt;b&gt;功能&lt;/b&gt;是否上线不知道，&lt;br&gt;&amp;nbsp; &amp;nbsp; 你去找运维；&lt;br&gt;2.现场&lt;b&gt;版本&lt;/b&gt;不知道，&lt;br&gt;&amp;nbsp; &amp;nbsp; 你去找运维；&lt;br&gt;3.&lt;b&gt;日志&lt;/b&gt;不用查，口头告诉你功能支持，&lt;br&gt;&amp;nbsp; &amp;nbsp; 要查你去找运维；" style="shape=callout;whiteSpace=wrap;html=1;perimeter=calloutPerimeter;dashed=1;fillColor=none;gradientColor=none;size=30;position=0.67;position2=0.71;base=19;direction=west;portConstraint=south;align=left;" vertex="1" parent="1">
          <mxGeometry x="540" y="520" width="210" height="130" as="geometry" />
        </mxCell>
      </root>
    </mxGraphModel>
  </diagram>
</mxfile>
